<?xml version="1.0" encoding="UTF-8"?><svg xmlns="http://www.w3.org/2000/svg" viewBox="0 0 80.64 80.64"><defs><style>.d,.e{fill:#0057ff;}.e{fill-rule:evenodd;}</style></defs><g id="a"/><g id="b"><g id="c"><g><circle class="d" cx="40.74" cy="27.26" r="7.64"/><path class="d" d="M40.32,0C18.05,0,0,18.05,0,40.32s18.05,40.32,40.32,40.32,40.32-18.05,40.32-40.32S62.58,0,40.32,0Zm28.51,68.82s-12.33-2.42-28.52-2.42-28.49,2.42-28.49,2.42c0,0,2.42-14.51,2.42-28.82s-2.42-28.19-2.42-28.19c0,0,10.42,2.42,28.43,2.42s28.59-2.42,28.59-2.42c0,0-2.42,13.88-2.42,28.32s2.42,28.69,2.42,28.69Z"/><path class="e" d="M54.76,44.96c-1.73,2.13-3.94,3.87-6.46,5.07-2.42,1.15-5.12,1.79-7.98,1.79s-5.57-.64-7.98-1.79c-2.52-1.2-4.73-2.94-6.46-5.07-.92-1.13-2.59-1.31-3.73-.38-1.13,.92-1.31,2.59-.38,3.72,2.24,2.75,5.07,5,8.29,6.53,3.11,1.48,6.59,2.31,10.26,2.31s7.15-.83,10.27-2.31c3.22-1.53,6.05-3.78,8.29-6.53,.92-1.13,.75-2.8-.38-3.72-1.13-.92-2.8-.75-3.72,.38h0Z"/></g></g></g></svg>